<?xml version="1.0" encoding="UTF-8"?> <!-- Generator: Adobe Illustrator 23.0.2, SVG Export Plug-In . SVG Version: 6.00 Build 0) --> <svg xmlns="http://www.w3.org/2000/svg" xmlns:xlink="http://www.w3.org/1999/xlink" id="Layer_1" x="0px" y="0px" viewBox="0 0 500 500" style="enable-background:new 0 0 500 500;" xml:space="preserve"> <style type="text/css"> .st0{opacity:0.25;fill:#87AEDD;enable-background:new ;} .st1{fill:#ADCDFC;} .st2{fill:#E2EDFF;} .st3{fill:#C7D8F2;} .st4{fill:#7BAEFF;} .st5{fill:#4DA5DC;} .st6{fill:#3AAEEF;} .st7{fill:#E1E8F2;} .st8{fill:#E16B40;} .st9{fill:#FF8654;} .st10{fill:#0046A6;} .st11{fill:#003783;} .st12{fill:#FF9F75;} .st13{fill:#CFDAE4;} .st14{fill:#00A5FF;} .st15{fill:#382747;} .st16{fill:#94A3C0;} .st17{fill:#FFFFFF;} .st18{fill:#FF5668;} .st19{fill:#B391FF;} .st20{fill:#D4D9DF;} .st21{fill:#F2F8FD;} .st22{fill:url(#SVGID_1_);} .st23{fill:url(#SVGID_2_);} .st24{fill:#05CCFF;} .st25{fill:#540CC7;} .st26{fill:#3F0995;} .st27{fill:#7974F5;} .st28{fill:#2689FD;} .st29{fill:#3548DB;} .st30{fill:#58AFFB;} .st31{fill:#EE2C6A;} .st32{fill:#EE428C;} .st33{fill:#FF3D9D;} .st34{fill:#7CCCFF;} .st35{fill:#3EABFF;} .st36{fill:#CC096A;} .st37{fill:none;} .st38{fill:#3278CC;} .st39{fill:#E2A029;} .st40{fill:#FFBE3D;} .st41{fill:url(#SVGID_3_);} .st42{fill:url(#SVGID_4_);} .st43{fill:#343996;} .st44{fill:#1AE5FF;} .st45{fill:none;stroke:#16C5DC;stroke-miterlimit:10;} .st46{fill:#F1F1F1;} .st47{fill:#FDB913;} .st48{opacity:0.53;} .st49{fill:#FF4272;} .st50{fill:#212973;} .st51{fill:#1CE5FF;} .st52{fill:#00A935;} .st53{fill:#61E041;} .st54{fill:#00CC41;} .st55{fill:#14347C;} .st56{fill:#18388F;} .st57{fill:#CE7C56;} .st58{fill:#FFAA83;} .st59{fill:#4D2C63;} .st60{opacity:0.1;fill:#8FDBDB;enable-background:new ;} .st61{fill:#1A2E35;} </style> <title>about us isometric business meeting-01</title> <g id="OBJECTS"> <path class="st0" d="M381.1,421.6c-13.8-8-33.3-10.7-50.9-8.3l62.6-36.4c6.8-4,6.8-10.4-0.1-14.4l-143.4-82.8c-6.9-4-18-4-24.9,0 l-49,28.5c-21.2-9.4-51.5-8.5-70.8,2.8s-20.7,28.8-4.5,41l-18.1,10.5c-6.8,4-6.8,10.4,0.1,14.4l143.4,82.8c6.9,4,18,4,24.9,0 l40.2-23.4c-4.2,10.2,0.6,21.5,14.4,29.5c21.1,12.2,55.3,12.2,76.3,0S402.2,433.8,381.1,421.6z"></path> <g> <path class="st1" d="M164.9,330.2c-0.6,6.3-6.5,10.5-11.8,12.9c-5.9,2.4-12.2,3.6-18.5,3.4c-6.5,0-12.9-1.4-18.8-4.2 c-5.1-2.5-10.4-7-10.4-13.1c0,4.5,0.3,8.2,3.5,11.7c4.2,4.5,10.4,6.9,16.3,8.1c11.5,2.4,27.1,1.2,35.8-7.6c3.5-3.5,4-7.3,4-12 C164.9,329.6,164.9,329.9,164.9,330.2z"></path> <path class="st2" d="M156.1,317c11.7,6.7,11.8,17.7,0.1,24.4s-30.5,6.7-42.2,0s-11.7-17.7-0.1-24.4S144.5,310.3,156.1,317z"></path> </g> <g> <polygon class="st3" points="140.5,303.4 140.4,329.4 135.8,332.1 135.9,306 "></polygon> <polygon class="st4" points="135.9,306 135.8,332.1 131.2,329.4 131.3,303.4 "></polygon> <polygon class="st5" points="140.5,303.4 135.9,306 131.3,303.4 135.9,300.7 "></polygon> </g> <path class="st6" d="M106.3,218.9c0,0-9.3,2.5-11.8,8.1s-1.9,47.9,11.2,65.4s37.4,19.9,43,17.4s38-18.7,40.5-26.8 s-10-14.3-16.8-17.4s-11.2-7.5-15-18.7s-5.6-30.5-10-33.6S132.4,205.2,106.3,218.9z"></path> <path class="st7" d="M162.1,207.6c0,0-15.3-12.7-18.4-13c-3.7-0.3-8.4,1-9.6,6.3c-1.1,4.2,0.7,8.6,4.4,10.9 c2.8,1.5,27.5,13.2,31.8,13.2s7.1-3.8,4.3-8.4S162.1,207.6,162.1,207.6z"></path> <path class="st8" d="M135.6,191.8c0,0.2,0,0.3,0,0.5c0.2,1.1,0.9,4,1.1,5.3s-1.1,3.3-4.3,3.4s-8.6-1-10.6-4.6 c-0.1-3.7-0.5-7.4-1.1-11.1L135.6,191.8z"></path> <path class="st9" d="M142.4,168.7c-2.3-9.6-10.2-14.7-18.8-12.3c0,0-9.4,1.4-13.1,9.9s2.7,15.1,6.9,19.3c1.8,1.7,3.1,3.1,3.9,3.9 c0.3,0.3,0.6,0.6,0.9,0.9l0.1,0.1l0,0c2.4,2.1,5.2,3.7,8.3,4.5c3.8,0.9,8.3,0.1,10.6-2.6S144.7,178.3,142.4,168.7z"></path> <path class="st10" d="M122.6,192.5c0,0-15.1,11.9-16.5,15.7s-1.2,14.1,2.4,20.9s3.6,32.2,5,37.1s14.9,5.8,23.1,3.8 s21.2-8.9,18.6-18.2c-3.9-13.8-3-27.6-2.6-32s-0.8-15.3-3.2-22.5c-0.5-1.5-5.9-3.6-5.9-3.6S138,191.1,122.6,192.5z"></path> <path class="st11" d="M125.4,249.4c-6.2-7.9,2.9-34.9-7.9-42.3c-3.3-2.3-6.1-2.9-8.4-2.6c-1.2,1.1-2.1,2.3-2.8,3.7 c-1.4,3.8-1.2,14.1,2.4,20.9s3.6,32.2,5,37.1c1.3,4.5,12.5,5.6,20.7,4.3l11.8-12.3C146.1,258.1,131.6,257.3,125.4,249.4z"></path> <path class="st7" d="M122.1,194.6c13.1-1.2,19.1,1,20.6,1.7c0.3,3.1,0.2,6.2-0.2,9.3c-1,6.2-3.5,23.2-3.5,23.2s-8.1-14-13.4-19.7 c-3.8-4.1-7.4-7.9-9.3-9.8C119.5,196.6,122.1,194.6,122.1,194.6z"></path> <path class="st9" d="M135.6,191.8c0,0.2,0,0.3,0,0.5c0.2,1.1,0.9,4,1.1,5.3s-1.1,3.3-4.3,3.4s-8.6-1-10.6-4.6 c-0.1-3.7-0.5-7.4-1.1-11.1L135.6,191.8z"></path> <path class="st12" d="M142.4,168.7c-2.3-9.6-10.2-14.7-18.8-12.3c0,0-9.4,1.4-13.1,9.9s2.7,15.1,6.9,19.3c1.8,1.7,3.1,3.1,3.9,3.9 c0.3,0.3,0.6,0.6,0.9,0.9l0.1,0.1l0,0c2.4,2.1,5.2,3.7,8.3,4.5c3.8,0.9,8.3,0.1,10.6-2.6S144.7,178.3,142.4,168.7z"></path> <path class="st13" d="M140.9,209.1l-5.9-5.2l-4.7,8.2l-4.7-3c5.3,5.8,13.4,19.7,13.4,19.7s2.1-14.2,3.2-21.4L140.9,209.1z"></path> <path class="st14" d="M140.5,219.1l-2.6-9.2l0.4-3.1l-3.2-2.9l-2.3,4l2.6,2.4l0.7,13.6c1.8,2.9,3,4.9,3,4.9 S139.7,224.3,140.5,219.1z"></path> <path class="st8" d="M109.4,165.4c-2.2,4.5-1.8,9.8,0.9,14c4.7,7.2,9.7,10.3,10.9,10.1s1.9-0.5,1.6-1.4s-1.9-4-1.9-4 s-5.3-0.6-5.3-4.1s1.9-4.1,4-3.1s2.5,2.5,3.7,3.7s1.6,4.4,2.5,4s1.6-1.3,1.6-2.8c0.2-2-0.5-3.9-1.9-5.3c-1.9-1.9,0.3-5-1.6-7.5 c-0.9-1.3-1.9-2.4-3.1-3.4c0,0,1.2,1.9,7.5,0.6s9-0.9,11.5-2.5s1.9-5,0.3-6.2s-5.3-1.9-9.6-3.4s-6.8-0.6-12.1,0.6 S108.1,161.6,109.4,165.4z"></path> <path class="st15" d="M197.2,352.8c0.1,2.2,1.2,4.3,3.1,5.4c3.3,2.3,3.9,3.7,6.6,4.8s5.2,4.6,3.9,7.1s-7.1,2.9-10.8,1.9 s-4.4-4.4-7.9-5.6c-2.2-0.7-4.2-2-5.8-3.7c-1-1-0.6-5.2-0.6-5.2l12.7-4.1"></path> <path class="st15" d="M213.4,340.8c0,2.2,1.2,4.2,3.1,5.4c3.3,2.3,3.9,3.7,6.6,4.8s5.2,4.6,3.9,7s-7.1,2.9-10.8,1.9 s-4.4-4.4-7.9-5.6c-2.2-0.7-4.2-2-5.8-3.7c-1-1-0.6-5.2-0.6-5.2l12.7-4.1"></path> <path class="st16" d="M114.6,266.3c0.4,1.5,0.6,3.1,0.6,4.7c0,2.2-1.6,8.4,1.6,15.9s24,9,30.8,12.1c4.3,1.9,8.3,4.2,12.1,6.9 c1.3,0.9,3,14.1,8.4,22s14.5,23.7,16.6,30.3c3.9,0.7,7.9,0,11.2-2.1c2.8-1.8,2.5-2.9,2.5-2.9s-10.8-23.7-13.3-33.6 s-5.4-21.6-10-24.5s-19.1-13.3-22.4-15.4s-12.3-8.6-14-12.6S120,256.7,114.6,266.3z"></path> <path class="st16" d="M131.7,256.1c0.4,1.5,0.6,3.1,0.6,4.7c0,2.2-1.6,8.4,1.6,15.9s24,9,30.8,12.1c4.3,1.9,8.3,4.2,12.1,6.9 c1.3,0.9,3,14.1,8.4,22s14.5,23.7,16.6,30.3c3.9,0.7,7.9,0,11.2-2.1c2.8-1.8,2.5-2.9,2.5-2.9s-10.8-23.7-13.3-33.6 s-5.4-21.6-10-24.5s-19.1-13.3-22.4-15.4s-12.3-8.6-14-12.6S137.1,246.4,131.7,256.1z"></path> <g> <polygon class="st3" points="215.7,334.8 215.6,398.1 204.5,404.5 204.7,341.2 "></polygon> <polygon class="st4" points="204.7,341.2 204.5,404.5 193.3,398.1 193.5,334.8 "></polygon> <polygon class="st5" points="215.7,334.8 204.7,341.2 193.5,334.8 204.6,328.4 "></polygon> </g> <path class="st1" d="M397.9,291.4c0,0.2,0,0.4-0.1,0.6s-0.1,0.3-0.1,0.5c0,0.2-0.1,0.4-0.1,0.5c0,0.1-0.1,0.3-0.2,0.4 s-0.2,0.4-0.3,0.5s-0.2,0.3-0.2,0.4s-0.3,0.4-0.4,0.6s-0.3,0.4-0.5,0.6l-0.1,0.1c-0.2,0.3-0.5,0.5-0.7,0.7l-0.5,0.5 c-0.2,0.1-0.3,0.3-0.5,0.4s-0.4,0.3-0.6,0.4l-0.7,0.4l-142.4,82.8c-1.2,0.7-2.5,1.3-3.9,1.7c-1.1,0.3-2.2,0.6-3.3,0.8 c-0.7,0.1-1.5,0.2-2.2,0.3s-1.3,0.1-1.9,0.1s-1.2,0-1.8,0s-1.2,0-1.7-0.1v10.1c0.6,0,1.1,0.1,1.7,0.1s1.2,0,1.8,0s1.3-0.1,1.9-0.1 s1.5-0.2,2.2-0.3c1.1-0.2,2.2-0.5,3.3-0.8c1.3-0.4,2.6-1,3.9-1.7l142.4-82.8l0.2-0.1l0.5-0.3l0.6-0.4l0.5-0.4l0.5-0.5l0.1-0.1 l0.6-0.6l0.1-0.1c0.1-0.1,0.2-0.3,0.3-0.4l0.1-0.2c0.1-0.2,0.3-0.4,0.4-0.6s0.1-0.2,0.2-0.3c0,0,0-0.1,0.1-0.1 c0.1-0.2,0.2-0.4,0.3-0.5s0.1-0.2,0.1-0.3s0-0.1,0-0.1s0.1-0.4,0.1-0.5s0.1-0.2,0.1-0.4c0,0,0-0.1,0-0.1c0-0.2,0-0.4,0.1-0.6 c0-0.1,0-0.2,0-0.4s0-0.1,0-0.1v-10.1C397.8,291.1,397.9,291.2,397.9,291.4z"></path> <path class="st1" d="M233.8,383.5c-0.6-0.1-1.2-0.2-1.7-0.3c-0.6-0.1-1.2-0.3-1.8-0.5s-1.4-0.5-2.1-0.7c-0.9-0.3-1.7-0.8-2.5-1.2 L82.2,298c-3.5-2-5.2-4.6-5.2-7.3V301c0,2.6,1.7,5.3,5.2,7.3L225.5,391c0.8,0.5,1.7,0.9,2.5,1.2c0.7,0.3,1.4,0.5,2.1,0.7 c0.6,0.2,1.2,0.3,1.8,0.5s1.1,0.2,1.7,0.3s1.1,0.1,1.7,0.2v-10.1C234.9,383.6,234.4,383.6,233.8,383.5z"></path> <path class="st2" d="M392.7,284c6.9,4,6.9,10.4,0.1,14.4l-142.4,82.8c-6.8,4-18,4-24.9,0L82.2,298.5c-6.9-4-6.9-10.4-0.1-14.4 l142.4-82.8c6.8-4,18-4,24.9,0L392.7,284z"></path> <polygon class="st17" points="238.7,314 277.9,336.8 305.5,320.9 266.3,298.1 "></polygon> <path class="st18" d="M272,308.4l-6.2,3.6l-7.8-2.3c2.2-2.5,7.5-3.5,11.8-2.2C270.6,307.6,271.3,308,272,308.4z"></path> <path class="st19" d="M273.4,308.8c4.1,2.4,4.2,6.3,0,8.7c-4.7,2.4-10.3,2.4-15,0c-3.3-1.9-4.1-4.7-2-7.1l9.5,2.8L273.4,308.8z"></path> <path class="st1" d="M267.8,325.9c-0.4,0.2-0.4,0.5,0,0.7c0.4,0.2,0.8,0.2,1.2,0l17.5-10.1c0.4-0.2,0.4-0.5,0-0.7 c-0.4-0.2-0.9-0.2-1.2,0L267.8,325.9z"></path> <path class="st20" d="M279.9,321.2c-0.2,0.1-0.3,0.3-0.2,0.5c0,0.1,0.1,0.2,0.2,0.2c0.4,0.2,0.8,0.2,1.2,0l7.4-4.3 c0.2-0.1,0.3-0.3,0.2-0.5c0-0.1-0.1-0.2-0.2-0.2c-0.4-0.2-0.8-0.2-1.2,0L279.9,321.2z"></path> <path class="st20" d="M277.5,324.8c-0.3,0.2-0.4,0.5,0,0.7c0.4,0.2,0.8,0.2,1.2,0l11.6-6.7c0.4-0.2,0.4-0.5,0-0.7 c-0.4-0.2-0.8-0.2-1.2,0L277.5,324.8z"></path> <path class="st21" d="M284.9,346.5c0.6,0.2,0.9,0.8,0.7,1.3c-0.1,0.3-0.4,0.6-0.7,0.7l-28,16.3c-1.1,0.6-2.4,0.6-3.4,0l-19.6-11.3 c-0.6-0.2-0.9-0.8-0.7-1.3c0.1-0.3,0.4-0.6,0.7-0.7l28-16.3c1.1-0.6,2.4-0.6,3.4,0L284.9,346.5z"></path> <linearGradient id="SVGID_1_" gradientUnits="userSpaceOnUse" x1="377.5237" y1="211.6864" x2="370.9537" y2="161.1464" gradientTransform="matrix(-1 0 0 -1 628.93 500)"> <stop offset="0" style="stop-color:#C6E6FF"></stop> <stop offset="1" style="stop-color:#8D9FFF"></stop> </linearGradient> <path class="st22" d="M285.6,347.6C285.6,347.6,285.6,347.6,285.6,347.6c0,0.1,0,0.1,0,0.1c0,0,0,0,0,0.1v0.1v0.1v0.1 c0,0,0,0.1,0,0.1v0l-0.1,0.1l0,0l-0.1,0.1l-0.1,0.1l-0.1,0.1l-0.1,0l-28,16.3l-0.3,0.2h-0.1l-0.2,0.1l-0.3,0.1h-0.3h-0.1h-0.4h-0.1 H255h-0.1c-0.1,0-0.3,0-0.4-0.1h-0.1l-0.3-0.1H254c-0.1,0-0.3-0.1-0.4-0.2l-19.6-11.3c-0.3-0.2-0.5-0.4-0.7-0.7c0-0.1,0-0.2,0-0.3 v1.1c0,0,0,0.1,0,0.1c0.1,0.4,0.4,0.7,0.7,0.9l19.6,11.3c0.1,0.1,0.2,0.1,0.4,0.2l0,0h0.1l0.2,0.1h0.1h0.1h0.1h0.2h0.7h0.3h0.1h0.2 h0.1l0.3-0.1h0.1h0.1h0.1c0.1,0,0.2-0.1,0.3-0.2l28-16.3l0,0h0.1l0.1-0.1l0.1,0l0.1-0.1l0,0l0,0l0.1-0.1l0,0l0,0l0.1-0.1l0,0l0,0 c0,0,0-0.1,0-0.1l0,0l0,0c0,0,0,0,0-0.1s0,0,0,0l0,0c0,0,0-0.1,0-0.1v-1.2C285.6,347.7,285.6,347.6,285.6,347.6z"></path> <linearGradient id="SVGID_2_" gradientUnits="userSpaceOnUse" x1="412.6974" y1="122.9422" x2="431.4275" y2="164.9122" gradientTransform="matrix(1 0 0 -1 -165.5 500)"> <stop offset="0" style="stop-color:#1AE5FF"></stop> <stop offset="1" style="stop-color:#EAEEEE"></stop> </linearGradient> <path class="st23" d="M282,346.9c0.3,0.2,0.3,0.5,0,0.6L255.4,363c-0.3,0.2-0.8,0.2-1.1,0l-17.6-10.2c-0.3-0.2-0.3-0.5,0-0.6 l26.6-15.5c0.3-0.2,0.8-0.2,1.1,0L282,346.9z"></path> <polygon class="st17" points="151.5,254.3 190.7,277.1 218.3,261.1 179.1,238.3 "></polygon> <path class="st19" d="M184.9,248.6l-6.2,3.6l-7.8-2.3c2.2-2.5,7.5-3.5,11.8-2.2C183.4,247.9,184.2,248.2,184.9,248.6z"></path> <path class="st24" d="M186.3,249.1c4.1,2.4,4.2,6.3,0.1,8.7c-4.7,2.4-10.3,2.4-15,0c-3.3-1.9-4.1-4.7-2-7.1l9.5,2.8L186.3,249.1z"></path> <path class="st1" d="M180.6,266.1c-0.4,0.2-0.4,0.5,0,0.7c0.4,0.2,0.8,0.2,1.2,0l17.5-10.1c0.4-0.2,0.4-0.5,0-0.7 c-0.4-0.2-0.8-0.2-1.2,0L180.6,266.1z"></path> <path class="st20" d="M192.7,261.5c-0.3,0.2-0.3,0.5,0,0.7c0.4,0.2,0.8,0.2,1.2,0l7.4-4.3c0.2-0.1,0.3-0.3,0.2-0.5 c0-0.1-0.1-0.2-0.2-0.2c-0.4-0.2-0.9-0.2-1.2,0L192.7,261.5z"></path> <path class="st24" d="M190.4,265c-0.3,0.2-0.4,0.5,0,0.7c0.4,0.2,0.9,0.2,1.2,0l11.6-6.7c0.4-0.2,0.4-0.5,0-0.7 c-0.4-0.2-0.8-0.2-1.2,0L190.4,265z"></path> <g> <polygon class="st25" points="214.6,324.5 214.6,326.9 209.2,330.1 209.2,327.7 "></polygon> <polygon class="st26" points="209.2,327.7 209.2,330.1 162.9,303.4 162.9,301 "></polygon> <polygon class="st27" points="214.6,324.5 209.2,327.7 162.9,301 168.4,297.9 "></polygon> </g> <g> <polygon class="st28" points="194.1,325 194.1,327.4 188.6,330.5 188.6,328.2 "></polygon> <polygon class="st29" points="188.6,328.2 188.6,330.5 152.3,309.5 152.3,307.2 "></polygon> <polygon class="st30" points="194.1,325 188.6,328.2 152.3,307.2 157.7,304 "></polygon> </g> <g> <polygon class="st31" points="163.7,319.8 163.7,322.2 158.3,325.3 158.3,323 "></polygon> <polygon class="st32" points="158.3,323 158.3,325.3 141.7,315.7 141.7,313.4 "></polygon> <polygon class="st33" points="163.7,319.8 158.3,323 141.7,313.4 147.1,310.2 "></polygon> </g> <path class="st1" d="M127.1,306.8c-0.5,0.3-0.6,0.8,0,1.1c0.6,0.3,1.3,0.3,1.9,0l27.6-15.9c0.3-0.1,0.5-0.4,0.4-0.7 c-0.1-0.2-0.2-0.3-0.4-0.4c-0.6-0.3-1.3-0.3-1.9,0L127.1,306.8z"></path> <path class="st1" d="M146.1,299.5c-0.3,0.1-0.5,0.5-0.4,0.8c0.1,0.2,0.2,0.3,0.4,0.4c0.6,0.3,1.3,0.3,1.9,0l11.7-6.8 c0.3-0.1,0.5-0.5,0.4-0.8c-0.1-0.2-0.2-0.3-0.4-0.4c-0.6-0.3-1.3-0.3-1.9,0L146.1,299.5z"></path> <path class="st1" d="M142.5,305c-0.3,0.1-0.5,0.5-0.4,0.8c0.1,0.2,0.2,0.3,0.4,0.4c0.6,0.3,1.4,0.3,2,0l18.3-10.6 c0.5-0.3,0.6-0.8,0-1.1c-0.6-0.3-1.3-0.3-1.9,0L142.5,305z"></path> <g> <path class="st34" d="M140.8,279.5l-4.4,2.5c-4.5-2.2-9.7-2.1-14.1,0.1l-0.2,0.1l-4.4-2.5l0.2-0.1 C124.2,275.9,134.4,275.9,140.8,279.5z"></path> <path class="st34" d="M141.5,279.9c5.2,3.3,5.8,8.1,1.6,11.7l-4.6-2.6c1.8-2.1,1.3-4.7-1.4-6.5L141.5,279.9z"></path> <path class="st35" d="M142.6,292c-0.5,0.3-0.9,0.7-1.4,1c-6.2,3.6-16.2,3.7-22.6,0.3l4.4-2.5c4.4,2,9.5,1.9,13.8-0.3 c0.5-0.3,0.9-0.6,1.4-1L142.6,292z"></path> </g> <path class="st35" d="M121.5,282.7c-3,2.3-2.8,5.5,0.7,7.6l-4.4,2.5c-5.9-3.5-6.2-9-0.8-12.7L121.5,282.7z"></path> <path class="st30" d="M227.8,161.6c2.2,1.4,3.5,3.7,3.6,6.3v35.3c0,2.3-1.6,3.3-3.7,2.1l-9.8-5.7l-0.5,0.7l-1.9,2.7l-1.9-4.9 l-0.5-1.2l-9.8-5.7c-2.2-1.4-3.5-3.7-3.6-6.3v-35.3c0-2.3,1.6-3.3,3.7-2.1L227.8,161.6z"></path> <path class="st17" d="M210.7,162v1c0,0.4-0.3,0.8-0.8,0.8c-0.1,0-0.3,0-0.4-0.1l-4.7-2.7c-0.2-0.1-0.4-0.4-0.4-0.7v-1 c0-0.4,0.3-0.8,0.8-0.8c0.1,0,0.3,0,0.4,0.1l4.7,2.7C210.6,161.5,210.7,161.7,210.7,162z"></path> <path class="st1" d="M225.5,175.5v1c0,0.4-0.3,0.8-0.8,0.8c-0.1,0-0.3,0-0.4-0.1l-19.5-11.3c-0.2-0.1-0.4-0.4-0.4-0.7v-1 c0-0.4,0.3-0.8,0.8-0.8c0.1,0,0.3,0,0.4,0.1l19.5,11.3C225.4,175,225.5,175.2,225.5,175.5z"></path> <polygon class="st17" points="209.5,175.1 209.5,176.3 206.9,185.3 205.7,184.6 208.4,175.6 204.9,173.6 204.9,172.5 "></polygon> <path class="st17" d="M214.9,178.2v1.2l-3-1.7l-0.2,3.5c0.3-0.4,0.8-0.5,1.5-0.1c1.3,0.8,2,2.3,1.9,3.9v2.3c0,1.8-0.8,2.5-2.3,1.6 c-1.5-0.9-2.4-2.5-2.3-4.3v-0.8l1.1,0.6v0.9c-0.1,0.9,0.4,1.9,1.2,2.4c0.8,0.5,1.2,0,1.2-1v-2.3c0.1-0.9-0.4-1.8-1.2-2.4 c-0.6-0.4-1-0.2-1.1,0.6v0.3l-1.1-0.6l0.3-6.3L214.9,178.2z"></path> <path class="st17" d="M222.6,187c0.9,0.6,1.5,1.6,1.4,2.7v3.7c0,1.1-0.4,1.6-1.4,1c-1-0.6-1.5-1.6-1.4-2.7V188 C221.1,186.9,221.6,186.4,222.6,187z M223.3,193v-3.8c0-0.6-0.2-1.1-0.7-1.5c-0.5-0.3-0.7,0-0.7,0.6v3.8c0,0.6,0.2,1.2,0.7,1.5 C223.1,193.9,223.3,193.6,223.3,193"></path> <path class="st17" d="M219.1,186.1c0,1.1-0.5,1.6-1.5,1c-0.9-0.6-1.5-1.6-1.4-2.7v-3.7c0-1.1,0.5-1.6,1.4-1 c0.9,0.6,1.5,1.6,1.4,2.7L219.1,186.1z M218.3,185.8V182c0-0.6-0.2-1.2-0.7-1.5c-0.5-0.3-0.7,0-0.7,0.6v3.8 c-0.1,0.6,0.2,1.1,0.7,1.5C218.1,186.7,218.3,186.4,218.3,185.8"></path> <polygon class="st17" points="221.7,182.2 222.4,182.6 218.4,191.9 217.7,191.5 "></polygon> <path class="st1" d="M272.4,234.8c11.7,6.7,11.8,17.7,0.1,24.4s-30.5,6.7-42.1,0s-11.7-17.7-0.1-24.4S260.7,228.1,272.4,234.8z"></path> <polygon class="st36" points="272.6,227.6 272.6,231.9 265.2,236.2 265.2,231.9 "></polygon> <path class="st36" d="M242.8,234.9l0.1-0.1c0.4-0.2,0.8-0.3,1.3-0.4l0.9-0.3l0.7-0.2l1-0.2c0.2-0.1,0.5-0.1,0.7-0.1l0.3-0.1 l1.2-0.2h0.4c0.5-0.1,1-0.1,1.4-0.1h0.3h1h1h0.8h0.9l0.8,0.1l0.9,0.1l0.8,0.1l0.9,0.2l1,0.2h0.2c0.5,0.1,0.9,0.2,1.3,0.4l0.4,0.1 c0.4,0.1,0.7,0.2,1.1,0.4l0.3,0.1c0.3,0.1,0.6,0.3,0.9,0.4l0.5,0.2c0.4,0.2,0.9,0.4,1.3,0.7v-5c-0.4-0.2-0.9-0.5-1.3-0.7l-0.5-0.2 c-0.3-0.1-0.5-0.2-0.8-0.3l-0.1-0.1l-0.3-0.1c-0.4-0.1-0.7-0.3-1.1-0.4l-0.4-0.1l-0.3-0.1l-1.1-0.3h-0.2c-0.2,0-0.4-0.1-0.5-0.1 l-0.4-0.1c-0.3-0.1-0.6-0.1-0.9-0.2l-0.4-0.1l-0.4-0.1l-0.9-0.1h-0.4h-0.4H254h-0.5h-1.8h-0.5H251c-0.4,0-0.8,0.1-1.2,0.1h-0.2 h-0.4c-0.4,0.1-0.8,0.1-1.2,0.2l-0.3,0.1h-0.1l-0.6,0.1c-0.3,0.1-0.7,0.1-1,0.2l-0.7,0.2c-0.3,0.1-0.6,0.2-0.9,0.3l-0.2,0.1 c-0.4,0.1-0.7,0.3-1.1,0.4l-0.1,0.1c-0.4,0.1-0.8,0.3-1.1,0.5l-0.3,0.1c-0.4,0.2-0.8,0.4-1.2,0.6l-0.2,0.1l-0.2,0.1l-0.3,0.2 l-0.3,0.2l-0.3,0.2l-0.3,0.2l-0.3,0.2l-0.3,0.2l-0.3,0.2l-0.1,0.1l-0.1,0.1c-0.1,0.1-0.3,0.3-0.4,0.4l-0.1,0.1l-0.5,0.5l0,0 l-0.1,0.1c-0.1,0.1-0.2,0.2-0.3,0.3l-0.1,0.2c-0.1,0.1-0.1,0.2-0.2,0.3c0,0,0,0.1-0.1,0.1c0,0,0,0.1-0.1,0.1l-0.1,0.3l-0.1,0.2 c0,0.1-0.1,0.2-0.1,0.3c0,0,0,0.1-0.1,0.1c0,0,0,0.1,0,0.1c0,0.1-0.1,0.2-0.1,0.3c0,0.1-0.1,0.2-0.1,0.2c0,0.1,0,0.2-0.1,0.3 c0,0,0,0.1,0,0.1c0,0,0,0.1,0,0.1s0,0.2-0.1,0.3c0,0.1,0,0.2,0,0.2c0,0.1,0,0.2,0,0.3c0,0,0,0.1,0,0.1c0,0.1,0,0.8,0,0.9v4.3 c0-0.1,0-0.2,0-0.3s0-0.2,0-0.3v-0.2c0-0.1,0-0.2,0-0.3c0-0.1,0-0.2,0.1-0.2c0-0.1,0-0.2,0.1-0.3l0.1-0.2l0.1-0.3l0.1-0.2 c0-0.1,0.1-0.2,0.1-0.3s0.1-0.1,0.1-0.2s0.1-0.2,0.1-0.3l0.1-0.2l0.2-0.3l0.1-0.2l0.3-0.4c0,0,0.1-0.1,0.1-0.1s0.3-0.4,0.5-0.5 l0.1-0.1l0.4-0.4l0.2-0.2l0.3-0.2l0.3-0.2l0.3-0.2l0.3-0.2l0.3-0.2l0.3-0.2l0.3-0.2l0.4-0.3c0.4-0.2,0.8-0.4,1.2-0.6l0.3-0.1 C242,235.2,242.4,235.1,242.8,234.9z"></path> <polygon class="st36" points="240.3,246.4 240.2,250.7 232.8,255 232.8,250.7 "></polygon> <path class="st37" d="M224.5,243.4v-4.3c0,4.2,2.8,8.4,8.3,11.7v4.3C227.2,251.8,224.5,247.6,224.5,243.4z"></path> <path class="st36" d="M232.8,250.7v4.3c-5.6-3.2-8.4-7.4-8.3-11.6v-4.3C224.5,243.3,227.3,247.5,232.8,250.7"></path> <path class="st18" d="M272.6,227.6l-7.4,4.3c-7-4-18.2-4-25.1,0s-6.9,10.5,0.1,14.5l-7.4,4.3c-11.1-6.4-11.1-16.8-0.1-23.1 S261.6,221.2,272.6,227.6z"></path> <path class="st38" d="M265.2,233.2v3c3.5,2,5.2,4.7,5.2,7.3v-4.3C270.5,236.6,268.7,235.2,265.2,233.2z"></path> <polygon class="st38" points="272.6,252.2 272.5,255.1 265.1,250.8 265.1,247.9 "></polygon> <path class="st38" d="M281,239.7c0,0.1,0,0.3,0,0.4c0,0.1,0,0.2,0,0.4s0,0.3-0.1,0.4s0,0.3-0.1,0.4s-0.1,0.3-0.1,0.4 s-0.1,0.3-0.1,0.4s-0.1,0.3-0.1,0.4l-0.1,0.4l-0.2,0.4c0,0.1-0.1,0.2-0.2,0.4s-0.1,0.3-0.2,0.4l-0.2,0.4c-0.1,0.2-0.2,0.3-0.3,0.5 s-0.1,0.2-0.2,0.3l-0.4,0.6l-0.2,0.2c-0.2,0.3-0.5,0.6-0.7,0.9l-0.2,0.2c-0.2,0.2-0.4,0.4-0.6,0.6l-0.3,0.3l-0.4,0.4l-0.4,0.3 l-0.4,0.3l-0.4,0.3l-0.5,0.3c-0.1,0.1-0.3,0.2-0.5,0.3l-0.5,0.3l-0.6,0.4l-0.2,0.1v4.3l0.2-0.1l0.4-0.2l0.3-0.2l0.5-0.3l0.5-0.3 l0.5-0.3l0.4-0.3l0.4-0.4l0.4-0.3l0.4-0.4l0.2-0.1c0,0,0.1-0.1,0.1-0.1l0.6-0.6l0.2-0.2c0.3-0.3,0.5-0.6,0.7-0.9l0,0 c0-0.1,0.1-0.1,0.1-0.2c0.1-0.2,0.3-0.4,0.4-0.6s0.1-0.2,0.2-0.3l0.3-0.5l0.1-0.1l0.1-0.2c0.1-0.1,0.1-0.3,0.2-0.4l0.2-0.4l0.2-0.4 c0-0.1,0-0.1,0.1-0.2l0.1-0.2c0-0.1,0.1-0.3,0.1-0.4s0.1-0.3,0.1-0.4s0.1-0.3,0.1-0.4c0-0.1,0-0.2,0-0.2v-0.1c0-0.1,0-0.3,0.1-0.4 s0-0.3,0-0.4s0-0.3,0-0.4c0-0.1,0-0.2,0-0.3v-0.3v-4.3C281,239.4,281,239.6,281,239.7z"></path> <path class="st30" d="M272.6,228.9c11.1,6.4,11.1,16.8,0.1,23.1l-0.2,0.1l-7.5-4.3l0.2-0.1c6.9-4,6.9-10.5-0.1-14.5L272.6,228.9z"></path> <path class="st39" d="M268.4,257.1l0.9-0.4l0.5-0.2l0.9-0.4l0.5-0.2c0.5-0.2,0.9-0.5,1.3-0.7v-1c-0.4,0.3-0.9,0.5-1.3,0.7l-0.5,0.2 l-0.9,0.4l-0.5,0.2l-0.9,0.4l-0.6,0.2c-0.3,0.1-0.6,0.2-1,0.3l-0.6,0.2l-0.5,0.1c-0.3,0.1-0.6,0.2-0.9,0.2l-0.5,0.1l-0.9,0.2 l-0.4,0.1l-1.4,0.3v1c0.5-0.1,0.9-0.2,1.4-0.3l0.4-0.1l0.9-0.2l0.5-0.1l0.9-0.2l0.5-0.1l0.2-0.1l0.4-0.1c0.3-0.1,0.7-0.2,1-0.3 L268.4,257.1z"></path> <path class="st40" d="M272.6,254.2c-3.4,1.8-7,3.1-10.8,3.8l-3.5-5.8c2.4-0.4,4.7-1.2,6.8-2.4L272.6,254.2z"></path> <path class="st27" d="M260.5,257.4l-0.9,0.1l-1,0.1l-0.9,0.1l-1.6,0.1h-0.1c-0.6,0-1.2,0.1-1.8,0.1h-0.4c-0.4,0-0.9,0-1.3,0H252 c-0.5,0-1,0-1.4,0h-0.3c-0.6,0-1.1-0.1-1.7-0.1h-0.4c-0.4,0-0.9-0.1-1.3-0.1c-0.2,0-0.3,0-0.5-0.1c-0.6-0.1-1.1-0.1-1.7-0.3l0,0 L243,257l-0.6-0.1l-1.1-0.3l-0.6-0.2l-0.9-0.3l-0.9-0.3c-0.3-0.1-0.6-0.2-0.9-0.3s-0.6-0.2-0.8-0.3l-1.2-0.5h-0.1l-1.4-0.6 l-0.3-0.2c-0.5-0.2-0.9-0.5-1.4-0.7v1.7c0.4,0.3,0.9,0.5,1.4,0.7l0.3,0.2c0.5,0.2,0.9,0.5,1.4,0.6l0.1,0l0.9,0.4l0.3,0.1l0.8,0.3 l0.9,0.3l0.9,0.3l0.5,0.2l0.4,0.1l0.6,0.2l1.1,0.3l0.6,0.1l0.3,0.1c0.5,0.1,0.9,0.2,1.4,0.3l0,0l1.4,0.2h0.3l0.5,0.1 c0.4,0.1,0.9,0.1,1.3,0.1h0.4h0.2l1.5,0.1h0.3h1h2.9l1.6-0.1h0.1l1.4-0.1h0.2l0.9-0.1l1-0.1l0.9-0.1c0.2,0,0.5-0.1,0.7-0.1 c0.2,0,0.3-0.1,0.5-0.1v-1.8L260.5,257.4z"></path> <path class="st19" d="M258.3,251.4l3.5,5.8c-9.8,1.9-21.1,0.6-28.9-4l7.4-4.3C245.1,251.7,252.1,252.6,258.3,251.4z"></path> <linearGradient id="SVGID_3_" gradientUnits="userSpaceOnUse" x1="36.6829" y1="223.5069" x2="65.9729" y2="441.1469" gradientTransform="matrix(-1 0 0 -1 391.82 500)"> <stop offset="0" style="stop-color:#1AE5FF"></stop> <stop offset="0.26" style="stop-color:#64E8F9"></stop> <stop offset="0.7" style="stop-color:#EAEEEE"></stop> </linearGradient> <path class="st41" d="M274.2,86.2l-0.2-0.1l-0.3-0.2l-0.3-0.1l-0.3-0.1l-0.3-0.1h0l0,0l-0.2-0.1l-0.3-0.1l-0.3-0.1l-0.3-0.1h-0.2 h-0.4h-0.4c-0.1,0-0.3,0-0.4,0.1l0,0l-0.5,0.1c-0.2,0.1-0.4,0.2-0.6,0.3l-4.7,2.7c0.3-0.2,0.6-0.3,1-0.4l0,0 c0.4-0.1,0.8-0.1,1.2-0.1l0,0c0.4,0,0.9,0.1,1.3,0.3l0,0c0.5,0.2,1,0.4,1.4,0.7l130.8,75.5l4.7-2.7L274.2,86.2z"></path> <linearGradient id="SVGID_4_" gradientUnits="userSpaceOnUse" x1="-20.26" y1="283.82" x2="-8.54" y2="283.82" gradientTransform="matrix(-1 0 0 -1 391.82 500)"> <stop offset="0" style="stop-color:#5155D4"></stop> <stop offset="1" style="stop-color:#45F7FF"></stop> </linearGradient> <path class="st42" d="M412.1,173.6c0-0.1,0-0.2,0-0.3s0-0.2,0-0.3v-0.4c0-0.1,0-0.2,0-0.4l0,0c0-0.1,0-0.2-0.1-0.3s0-0.3-0.1-0.4 l-0.1-0.4c0-0.1-0.1-0.3-0.1-0.4s0-0.2-0.1-0.3l0,0c0,0,0,0,0-0.1l-0.1-0.4c0-0.1-0.1-0.2-0.1-0.4s-0.1-0.2-0.1-0.4L411,169 l-0.1-0.3l0,0v-0.1c0-0.1-0.1-0.2-0.2-0.3c0-0.1-0.1-0.3-0.2-0.4l-0.2-0.4c-0.1-0.2-0.2-0.3-0.3-0.4L410,167l0-0.1 c-0.2-0.3-0.3-0.6-0.5-0.8l-0.5-0.6c-0.1-0.1-0.2-0.3-0.3-0.4l-0.3-0.3l-0.3-0.3c-0.1-0.1-0.2-0.2-0.3-0.3l0-0.1l0,0l-0.2-0.2 l-0.3-0.3l-0.3-0.3l-0.3-0.3l-0.2-0.1l0,0l-0.1-0.1c-0.1-0.1-0.2-0.2-0.3-0.2l-0.3-0.2l-0.3-0.2l-0.3-0.2h-0.1l-4.7,2.7 c0.5,0.3,1,0.6,1.4,1l0,0c0.5,0.4,0.9,0.8,1.3,1.2l0,0c0.8,0.9,1.6,1.9,2.2,3c0,0,0,0,0,0.1c0.3,0.5,0.6,1.1,0.8,1.6l0,0 c0.2,0.6,0.5,1.1,0.6,1.7l0,0c0.2,0.6,0.3,1.2,0.4,1.7l0,0c0.1,0.6,0.1,1.1,0.1,1.7l-0.2,89.3c0,0.5-0.1,1-0.1,1.5v0 c-0.1,0.4-0.2,0.8-0.4,1.2l0,0c-0.1,0.3-0.3,0.6-0.5,0.8l-0.2,0.2c-0.2,0.2-0.5,0.5-0.8,0.6l4.7-2.7c0.3-0.2,0.5-0.4,0.8-0.6 l0.2-0.3c0.1-0.1,0.2-0.2,0.3-0.3c0.1-0.2,0.2-0.3,0.3-0.5v0l0.1-0.4l0.1-0.4c0-0.1,0.1-0.2,0.1-0.4v-0.1v0c0,0,0-0.1,0-0.1 c0-0.1,0-0.2,0-0.3s0-0.2,0-0.3s0-0.2,0-0.3s0-0.2,0-0.3l0,0l0.3-89.4L412.1,173.6z"></path> <path class="st43" d="M400.4,164.5c4.1,2.7,6.7,7.2,7,12.2l-0.2,89.3c0,4.5-3.2,6.3-7.1,4l-130.8-75.5c-4.1-2.7-6.7-7.2-7-12.2 l0.2-89.3c0-4.5,3.2-6.3,7.1-4L400.4,164.5z"></path> <path class="st28" d="M362.5,127.8c1.3,0.9,2.1,2.3,2.2,3.8l-0.1,28.1c0,1.4-1,2-2.2,1.3l-41.1-23.7c-1.3-0.8-2.1-2.3-2.2-3.8 l0.1-28.1c0-1.4,1-2,2.2-1.3L362.5,127.8z"></path> <path class="st17" d="M284.6,115.4v1.3c0,0.6-0.5,1-1,1c-0.1,0-0.3,0-0.4-0.1l-6-3.5c-0.3-0.2-0.5-0.5-0.5-0.8v-1.3 c0-0.6,0.5-1,1-1c0.1,0,0.3,0,0.4,0.1l6,3.5C284.4,114.7,284.6,115,284.6,115.4z"></path> <path class="st44" d="M303.6,132.7v1.3c0,0.6-0.5,1-1,1c-0.1,0-0.3,0-0.4-0.1l-25.1-14.5c-0.3-0.2-0.5-0.5-0.5-0.8v-1.3 c0-0.6,0.5-1,1-1c0.1,0,0.3,0,0.4,0.1l25.1,14.5C303.5,132,303.6,132.4,303.6,132.7z"></path> <polyline class="st45" points="273.1,174.4 283.1,169.4 289.6,179.9 296.9,187.3 304.2,182.9 319.7,177.9 326.8,187.9 333.8,193.7 340.2,203.1 348.8,184.9 359.4,189.9 364.9,185.4 376.3,188.4 393.3,186.9 "></polyline> <path class="st46" d="M332.1,117c-3.8-2.2-7.4-1.6-8.9,1.8c-1.9,4.3,0.3,11.6,4.7,16.6l1-2.4c-3-3.5-4.4-8.5-3.1-11.5 c1-2.4,3.6-2.8,6.2-1.3c0.7,0.4,1.4,0.9,2,1.5l1-2.4C334.2,118.4,333.2,117.6,332.1,117z"></path> <path class="st47" d="M335.1,119.3l-1,2.4c0.2,0.2,0.3,0.3,0.5,0.5c3.4,3.5,5.1,9,3.8,12.2l-0.2,0.3l-0.1,0.1c-1,1.8-2.9,2.2-5,1.3 c-0.3-0.1-0.7-0.3-1-0.5l-0.3-0.2l-0.4-0.3l-0.1-0.1c-0.3-0.2-0.6-0.4-0.8-0.6l-0.1-0.1l-0.3-0.3c0,0-0.1-0.1-0.1-0.1l-0.4-0.4 c-0.2-0.2-0.4-0.4-0.6-0.7l-1,2.4l0.6,0.6l0.6,0.6l0.2,0.1c0.1,0.1,0.3,0.3,0.4,0.4l0.1,0.1c0.4,0.3,0.8,0.6,1.1,0.9l0.1,0.1 c0.2,0.1,0.4,0.2,0.5,0.4h0.1l0.4,0.2c0.3,0.2,0.6,0.3,0.9,0.4l0.6,0.3c3.2,1.3,6.1,0.5,7.4-2.5c1.9-4.5-0.5-12.2-5.3-17.2 C335.4,119.6,335.2,119.4,335.1,119.3z"></path> <path class="st17" d="M349.9,132.6v0.7c0,0.3-0.3,0.6-0.6,0.6c-0.1,0-0.2,0-0.3-0.1l-3.5-2c-0.2-0.1-0.3-0.3-0.3-0.5v-0.7 c0-0.3,0.3-0.6,0.6-0.6c0.1,0,0.2,0,0.3,0.1l3.5,2C349.8,132.2,349.9,132.4,349.9,132.6z"></path> <path class="st17" d="M360.9,142.6v0.7c0,0.3-0.2,0.6-0.5,0.6c-0.1,0-0.2,0-0.3-0.1l-14.5-8.4c-0.2-0.1-0.3-0.3-0.3-0.5v-0.7 c0-0.3,0.2-0.6,0.6-0.6c0.1,0,0.2,0,0.3,0.1l14.5,8.4C360.8,142.2,360.9,142.4,360.9,142.6z"></path> <g class="st48"> <path class="st17" d="M354.9,146.5v0.7c0,0.3-0.3,0.6-0.6,0.6c-0.1,0-0.2,0-0.3-0.1l-8.5-4.9c-0.2-0.1-0.3-0.3-0.3-0.5v-0.7 c0-0.3,0.2-0.6,0.6-0.6c0.1,0,0.2,0,0.3,0.1l8.5,4.9C354.8,146.1,354.9,146.3,354.9,146.5z"></path> </g> <path class="st30" d="M358.6,145v0.7c0,0.3-0.2,0.6-0.6,0.6c-0.1,0-0.2,0-0.3-0.1l-12.2-7.1c-0.2-0.1-0.3-0.3-0.3-0.5v-0.7 c0-0.3,0.2-0.6,0.6-0.6c0.1,0,0.2,0,0.3,0.1l12.2,7.1C358.5,144.6,358.6,144.8,358.6,145z"></path> <path class="st49" d="M393.3,177.7c-4.2-2.4-7.7-0.5-7.7,4.4s3.4,10.8,7.6,13.2s7.6,0.5,7.7-4.4 C400.6,185.5,397.8,180.6,393.3,177.7z"></path> <path class="st50" d="M393.3,182.5c-1.9-1.1-3.5-0.2-3.5,2c0.1,2.4,1.4,4.7,3.5,6c1.9,1.1,3.5,0.2,3.5-2 C396.6,186,395.3,183.8,393.3,182.5z"></path> <path class="st51" d="M285.1,131.9v1.3c0,0.6-0.4,1-1,1c-0.2,0-0.4,0-0.5-0.1l-6.2-3.6c-0.3-0.2-0.5-0.5-0.5-0.9v-1.3 c0-0.6,0.4-1,1-1c0.2,0,0.4,0,0.5,0.1l6.2,3.6C285,131.2,285.2,131.5,285.1,131.9z"></path> <path class="st51" d="M304.8,149.7v1.3c0,0.6-0.4,1-1,1c-0.2,0-0.4,0-0.5-0.1L277.4,137c-0.3-0.2-0.5-0.5-0.5-0.9v-1.3 c0-0.6,0.4-1,1-1c0.2,0,0.4,0,0.5,0.1l25.9,14.9C304.7,149,304.8,149.3,304.8,149.7z"></path> <g class="st48"> <path class="st51" d="M294.2,156.7v1.3c0,0.6-0.4,1-1,1c-0.2,0-0.4,0-0.5-0.1l-15.2-8.7c-0.3-0.2-0.5-0.5-0.5-0.9V148 c0-0.6,0.4-1,1-1c0.2,0,0.4,0,0.5,0.1l15.2,8.7C294,156,294.1,156.3,294.2,156.7z"></path> </g> <path class="st51" d="M300.8,153.9v1.3c0,0.6-0.4,1-1,1c-0.2,0-0.4,0-0.5-0.1l-21.9-12.5c-0.3-0.2-0.5-0.5-0.5-0.9v-1.3 c0-0.6,0.4-1,1-1c0.2,0,0.4,0,0.5,0.1l21.9,12.6C300.6,153.2,300.8,153.6,300.8,153.9z"></path> <g> <polygon class="st52" points="374.5,243.3 378,241.3 378,265.2 374.4,267.3 "></polygon> <path class="st53" d="M381.7,242.7v-0.2l0,0v-0.2l0,0l0,0l0,0l0,0l-11-21.9l0,0v-0.1l-0.1-0.1l0,0l0,0l0,0l0,0l0,0l0,0l0,0l0,0 l0,0l0,0l0,0l0,0l0,0l0,0l0,0l0,0l0,0h-0.4l0,0l-3.5,2.1c0.1,0,0.1,0,0.2,0l0,0c0.1,0,0.2,0,0.2,0.1c0.1,0.1,0.2,0.1,0.3,0.2l0,0 c0.1,0.1,0.2,0.2,0.2,0.3l11,21.9c0.1,0.1,0.1,0.2,0.1,0.3l0,0c0,0.1,0,0.2,0,0.3l0,0c0,0.1,0,0.1-0.1,0.2l0,0 c0,0.1-0.1,0.1-0.1,0.1l3.5-2.1c0,0,0.1-0.1,0.1-0.1l0,0l0,0l0,0l0,0v-0.1l0,0v-0.1L381.7,242.7z"></path> <path class="st54" d="M366.6,221.8c0.2,0.1,0.4,0.3,0.5,0.5l11,21.9c0.3,0.6,0,1.2-0.5,0.9l-3.1-1.8l-0.1,24l-16.1-9.3l0.1-24 l-3-1.7c-0.5-0.3-0.8-1.2-0.5-1.4l11.1-9.1C366.2,221.6,366.4,221.7,366.6,221.8z"></path> </g> <polygon class="st17" points="252.6,272.9 284.4,305.3 315.2,297.3 283.5,264.9 "></polygon> <g> <path class="st2" d="M286.7,274.9l-3,1.1c-2.6-1.8-5.9-2.4-8.9-1.4l-0.2,0.1l-2.5-2.1l0.2-0.1C277.2,271,282.5,271.9,286.7,274.9z "></path> <path class="st2" d="M287.1,275.2c3,2.6,2.8,5.8-0.2,7.6l-2.6-2.1c1.4-1.1,1.4-2.8-0.2-4.3L287.1,275.2z"></path> <path class="st35" d="M286.5,283c-0.3,0.2-0.7,0.3-1,0.5c-4.3,1.6-10.6,0.6-14.3-2.2l3-1.1c2.6,1.7,5.8,2.2,8.8,1.3 c0.3-0.1,0.7-0.3,1-0.5L286.5,283z"></path> </g> <path class="st35" d="M274.1,274.9c-2.1,1.1-2.3,3.2-0.4,4.9l-3,1.1c-3.4-2.9-2.9-6.4,0.9-8.1L274.1,274.9z"></path> <path class="st16" d="M283.6,433.3c0,0-2.5,1.7-0.1,5.8s4.4,1.6,9.6,5.6s7.2,4.8,10,4.5s4.5-1.7,5-3.3s-0.9-4.2-0.9-4.2 L283.6,433.3z"></path> <path class="st15" d="M306,433.4c0,0,1.1,5.3,1.7,9.3c0.2,1.9-2.3,4.4-5.9,4.3s-5.6-1.2-6.9-2.8s-9-4.6-10.4-5.8s-1.7-5-1.1-5.9 c1.3-1.6,3.5-2.2,5.5-1.4c2.5,1.1,4.5,3.1,9.5,3.4S306,433.4,306,433.4z"></path> <path class="st16" d="M308.3,419.8c0,0-2.5,1.7-0.1,5.8s4.4,1.6,9.6,5.6s7.2,4.8,10,4.5s4.5-1.7,5-3.3s-0.9-4.2-0.9-4.2 L308.3,419.8z"></path> <path class="st15" d="M330.7,419.9c0,0,1.1,5.3,1.7,9.3c0.2,1.9-2.3,4.4-5.9,4.3s-5.6-1.3-6.9-2.8s-9-4.6-10.4-5.8s-1.7-5-1.1-5.9 c1.3-1.6,3.5-2.2,5.5-1.4c2.5,1.1,4.5,3.1,9.5,3.4S330.7,419.9,330.7,419.9z"></path> <path class="st55" d="M311.3,376.9c1.3,10,6.2,36.1,7.1,45.2c0,0,2.1,3.3,8.3,2.5l3-1.2c1.2-0.5,1.9-1.7,1.7-3 c-0.6-5-2-17.7-1.4-25.2c0.8-9.5-1.7-15.4-1.7-15.4c0.2-3.1,0.6-13.9-5.6-16.8C322.8,363,307.5,360.2,311.3,376.9"></path> <path class="st56" d="M324,367.5l-1.7,3.3c0,0-25.5,1.3-32.4,8.7c0,0-4.6,0.8-3.3,10.8s6.2,36.1,7,45.3c0,0,2.1,3.3,8.3,2.5l3-1.2 c1.2-0.5,1.9-1.7,1.8-3c-0.6-5-2-17.7-1.4-25.3c0.8-9.5-1.7-15.4-1.7-15.4c7.9,1.6,15.7,4,23.2,7c12,5,22.4-0.8,27-3.3 c2.2-1.1,4.3-2.5,6.2-4.1c4.1-0.3,8.1-1.9,11.2-4.6c5.4-4.6,6.2-16.6,0.4-23.7S324,367.5,324,367.5z"></path> <path class="st57" d="M333.1,304.4c0,0,4.1-1.5,3.9-7c-1.3-5.4-2.8-5.8-2.8-5.8s5.8-5.3,12.7-3.6c0,0,4.3,8.7,9.2,12.5 C356.1,300.4,352.2,310.6,333.1,304.4z"></path> <path class="st39" d="M342.1,307.5c0,0,15.3-12.8,18.4-13.1c3.7-0.3,8.4,0.9,9.6,6.2c1.1,4.2-0.6,8.6-4.4,10.9 C363,313.1,338.4,325,334,325s-7.2-3.7-4.4-8.4S342.1,307.5,342.1,307.5z"></path> <path class="st40" d="M346.8,299c0,0-16.2,5.4-20.8,12.9s-3.7,15.8-0.4,27.4s-3.3,22-1.7,28.2s13.3,12,30.3,9.1s18.3-9.5,19.5-13.3 s-3.3-21.6,0.8-36.1s-4.1-24.5-7.5-27S357.2,294.5,346.8,299z"></path> <path class="st39" d="M367.2,300.3c-3.3-2.5-10-5.8-20.3-1.2c0,0-16.2,5.4-20.8,12.9c-1.1,1.7-1.9,3.6-2.4,5.6 c6.5-8.5,15.9-12.3,21.9,2.3c5.6,13.6-8.7,53.4-21.3,40.9c-0.5,2.6-0.8,4.9-0.3,6.8c1.7,6.2,13.3,12,30.3,9.1s18.3-9.5,19.5-13.3 s-3.3-21.6,0.8-36.1S370.5,302.8,367.2,300.3z"></path> <path class="st17" d="M331.4,306.1c0,0,4.4,2.8,15.3,1.3s11.5-9.3,10.6-10c-1-0.9-2-2-2.8-3.1c0,0-11.5,5.3-15.6,6.9 s-6.2,2.5-6.2,2.5L331.4,306.1z"></path> <path class="st58" d="M324.2,272.1c0,0-0.9,11.2,5,18.7s11.8,3.1,15.6,1.3s5.3-5,6.5-14s1.2-17.8-5.3-20.5s-13.7-3.4-17.8,3.4 S324.2,272.1,324.2,272.1z"></path> <path class="st59" d="M328.5,258.8c0,0-5.3,4-5,10s-1.6,6.9-0.9,10s5.6,4,5.9,8.4s6.9,5.9,10.3,7.2s9-2.8,10.6-5s1.3-7.8,3.1-12.8 s0.9-11.2-0.6-15.6s-4.7-5.3-4.7-5.3c-1-2.1-3-3.6-5.3-4.1C338.2,251,326.7,251.6,328.5,258.8z"></path> <g> <path class="st1" d="M378.4,442.9c-0.6,6.3-6.5,10.5-11.8,12.9c-5.9,2.4-12.2,3.6-18.5,3.4c-6.5,0-12.9-1.4-18.8-4.2 c-5.1-2.5-10.4-7-10.4-13.1c0,4.5,0.3,8.2,3.5,11.7c4.1,4.5,10.4,6.9,16.3,8.1c11.5,2.4,27.1,1.2,35.8-7.6c3.5-3.5,4-7.3,4-12 C378.5,442.3,378.5,442.6,378.4,442.9z"></path> <path class="st2" d="M369.7,429.7c11.7,6.7,11.8,17.7,0.2,24.4s-30.5,6.7-42.2,0s-11.7-17.7-0.1-24.4S358,423,369.7,429.7z"></path> </g> <g> <polygon class="st3" points="354,416.1 354,442.1 349.4,444.8 349.5,418.7 "></polygon> <polygon class="st4" points="349.5,418.7 349.4,444.8 344.8,442.1 344.9,416.1 "></polygon> <polygon class="st5" points="354,416.1 349.5,418.7 344.9,416.1 349.4,413.4 "></polygon> </g> <path class="st38" d="M407.1,327.1c-0.1-3-2.6-5.3-5.5-5.2c-0.5,0-1.1,0.1-1.6,0.3c-14.9,5.2-49,17.6-51.2,22 c-2.1,4.2-8.8,27.5-12.2,39.2c-0.8,2.8-3.8,4.5-6.6,3.7c-0.4-0.1-0.9-0.3-1.3-0.5l-20.6-12.2c-2.6-1.5-5.8-0.6-7.3,1.9 c-0.6,1.1-0.9,2.4-0.7,3.6l3.3,19.9c0.3,1.6,1.2,3,2.6,3.8l22.1,12.7c12.3,7.1,27.4,7.5,40.1,1.2l17-8.5 c14.9-7.4,24.1-22.9,23.4-39.5L407.1,327.1z"></path> <path class="st6" d="M348.8,344.2c-2.1,4.2-8.8,27.5-12.2,39.2c-0.8,2.8-3.8,4.5-6.6,3.7c-0.4-0.1-0.9-0.3-1.3-0.5l-20.6-12.2 c-2.6-1.5-5.8-0.6-7.3,1.9c-0.6,1.1-0.9,2.4-0.7,3.6l3.3,19.9c0.1,0.5,0.2,0.9,0.4,1.3l0.8,1.2c0.4,0.5,0.9,0.9,1.4,1.2l22.1,12.7 c4.6,2.6,9.7,4.4,14.9,5.2c17.9-13.9,15.6-71.9,9.1-76.8c-0.8-0.6-1.6-1.1-2.5-1.4C349.3,343.5,349,343.9,348.8,344.2z"></path> <path class="st40" d="M308.9,326.6c0,0,15.3-12.8,18.4-13.1c3.7-0.3,8.4,0.9,9.6,6.2c1.1,4.2-0.6,8.6-4.4,10.9 c-2.8,1.6-27.4,13.4-31.8,13.4s-7.2-3.7-4.4-8.4S308.9,326.6,308.9,326.6z"></path> <path class="st58" d="M287.5,306.4c-0.4-0.8-0.7-1.7-0.9-2.6c-0.1-1.1,0.5-2.5-0.1-5s-1.7-4.7-2.2-6.4c-1.3-1.6-2.3,1.2-1.4,3.6 s0.6,3.7-0.3,3.9s-4.8-2.2-5.9-3.4s-7.3-7.3-7.9-6.5s-0.6,1.5,1.6,3.9s3,3.4,3.1,4c0.1,1.1,0.4,2.1,0.8,3.1 c0.8,1.9,0.2,3.1,1.6,4.8s4,2,5.3,3.1l1.2,1.1L287.5,306.4z"></path> <path class="st40" d="M300.8,344.1c0,0-6.5,1.2-10.1-6s-9.5-26.8-10.4-28.6c1.4-2.7,4.2-4.4,7.3-4.4c0,0,5.8,11.4,9.1,16.6 S312,342,300.8,344.1z"></path> <path class="st12" d="M204.6,220.3c0,0,2-1.3,3.2-0.9c2.2,0.5,4.4,0.9,6.6,1.1c1.3,0.1,3.9-2.2,4.3-2.6s0.7-1.2,1.3-1.8 s0.8-0.5,0.8-1.5s1-1.9,1.5-2.4s2.3-1.6,2.1-2.4s-1.1-0.4-1.7-0.2s-2.7,2.1-3.6,2.7c-1.3,0.7-2.8,1.2-4.2,1.4 c-0.7,0-1.4-0.1-2.1-0.3c0,0-0.3,0,0.8-0.4c0.9-0.2,1.8-0.3,2.7-0.3c0.9-0.2,1.4-0.7,1.3-1.2s-1.3-0.5-1.8-0.5 c-1.4,0.1-2.9,0-4.3-0.1c-1.1-0.2-2.9,1.7-3.3,2c-1,0.5-2.2,0.9-3.3,1C204,214.2,204.6,220.3,204.6,220.3z"></path> <path class="st7" d="M164.9,219.3c0,0,1.9,6.4,10,6.1s28.1-4,30.2-4.1c1.8-2.5,2-5.8,0.5-8.5c0,0-12.8,0.1-19-0.4 S161.6,208.5,164.9,219.3z"></path> <path class="st7" d="M122.2,232.1c0,0-3.4-19.6-5.5-21.9c-2.7-2.6-7-4.7-11.4-1.5c-3.6,2.5-5.1,7-3.7,11.1 c1.1,3,12.2,27.9,15.6,30.8s7.9,1.8,8.8-3.6S122.2,232.1,122.2,232.1z"></path> <path class="st12" d="M156.2,242.5c0,0,2.6,0.2,3.6,0.2s8.1-0.6,9.3-0.6s1.3,1.4,1.3,1.4c0.6,0.9,1,1.8,1.2,2.8 c-0.1,0.9,0.1,1.8,0.3,2.6c0.3,0.8-0.2,1.4-0.5,2s-1.1,0.9-1.9,1.4c-0.7,0.4-1.6,0.5-2.3,0.2c-0.6-0.3-0.6-0.5,0.1-0.9 c0.5-0.3,1-0.7,1.4-1.1c-0.6,0.6-1.5,1-2.3,1.1c-1.6,0.2-3.3,0.1-4.8-0.5l-3.4-1.7l-2.5-0.3L156.2,242.5z"></path> <path class="st7" d="M116.6,248c0,0,1.9,6.4,10,6.1s28.1-4,30.2-4.1c1.8-2.5,2-5.8,0.5-8.5c0,0-12.8,0.1-18.9-0.4 S113.3,237.2,116.6,248z"></path> </g> <g id="DESIGNED_BY_FREEPIK"> <path class="st60" d="M212.4,134.2c-1.6,25.1-85.8,72.8-108,82.5c-18.4,8-35.4,18.8-50.5,31.9c-21.2,18.6-38.7,44.9-33,76.1 c6.4,34.7,45.1,66.7,79.8,66.1c17.7-0.3,32.8-7.8,49.5-11.3s37.6-1.8,51.5,12.1c12.9,12.8,15,31.4,12.9,46.9 c-1.6,12-4.3,26.1,5.4,36.3c9.4,9.8,24.1,9.1,35.2,5.7c36-10.9,62.6-41.3,68.8-78.4c2.3-13.3,2.2-27.5,6-40.2 c10-33.3,44.1-49.7,70.3-71.1c22.3-18.3,39.8-41.7,51.2-68.2c6.9-16,11.7-34,7.8-53c-2.8-13.7-9.9-27-17.1-39.9 c-7.7-13.8-15.6-27.5-23.7-41.2c-4.8-8.1-9.9-16.4-16.6-23.4c-12.3-12.7-29-19.9-45.3-23.9c-38.6-9.6-77.8-2.7-104.9,18.3 s-41.5,55.9-38.7,93.3"></path> </g> <g> <g> <g> <g> <path class="st61" d="M142.2,170.9c0.2,0.5,0,1.1-0.6,1.4c-0.6,0.3-1.2,0.1-1.4-0.4c-0.2-0.5,0-1.1,0.6-1.4 C141.3,170.2,142,170.4,142.2,170.9z"></path> </g> </g> <g> <g> <g> <path class="st61" d="M142,169.7c-0.1,0.2-1.1,0-2.2,0.4c-1.1,0.5-1.7,1.3-1.9,1.3c-0.1,0,0-0.3,0.2-0.7 c0.3-0.4,0.8-0.9,1.5-1.2c0.7-0.3,1.4-0.3,1.8-0.2C141.8,169.4,142,169.6,142,169.7z"></path> </g> </g> </g> </g> <g> <g> <g> <path class="st61" d="M130.8,175.2c0.2,0.5,0,1.1-0.6,1.4c-0.6,0.3-1.2,0.1-1.4-0.4c-0.2-0.5,0-1.1,0.6-1.4 C129.9,174.5,130.6,174.7,130.8,175.2z"></path> </g> </g> <g> <g> <g> <path class="st61" d="M130.8,174.1c-0.1,0.2-1.1,0-2.2,0.4c-1.1,0.5-1.7,1.3-1.9,1.3c-0.1,0-0.1-0.3,0.2-0.7 c0.3-0.4,0.8-0.9,1.5-1.2c0.7-0.3,1.4-0.3,1.8-0.2C130.7,173.9,130.9,174.1,130.8,174.1z"></path> </g> </g> </g> </g> <g> <g> <g> <path class="st61" d="M139.7,184.1c0-0.1,0.6-0.5,1.7-1.1c0.3-0.1,0.5-0.3,0.5-0.5c0-0.2-0.3-0.5-0.5-0.7 c-0.5-0.5-1.1-1.1-1.7-1.7c-2.4-2.4-4.3-4.4-4.2-4.5c0.1-0.1,2.1,1.8,4.5,4.2c0.6,0.6,1.1,1.2,1.7,1.7c0.2,0.3,0.6,0.5,0.6,1 c0,0.2-0.1,0.5-0.3,0.6c-0.2,0.1-0.3,0.2-0.5,0.3C140.4,183.9,139.7,184.2,139.7,184.1z"></path> </g> </g> </g> <g> <g> <g> <path class="st61" d="M133.8,187c0.2-0.1,0.7,1.1,2,1.4c1.4,0.4,2.6-0.3,2.7-0.2c0,0.1-0.2,0.3-0.7,0.6 c-0.5,0.2-1.4,0.4-2.2,0.2c-0.8-0.2-1.4-0.8-1.6-1.2C133.7,187.3,133.7,187,133.8,187z"></path> </g> </g> </g> </g> </svg> 